<?xml version="1.0" encoding="UTF-8"?> <svg xmlns="http://www.w3.org/2000/svg" width="63" height="98" viewBox="0 0 63 98" fill="none"> <path d="M62.2801 28.5596C62.2801 31.8262 61.6735 34.9062 60.4601 37.7996C59.2468 40.5996 57.7068 43.2129 55.8401 45.6396C53.9735 47.9729 51.9201 50.1662 49.6801 52.2196C47.4401 54.2729 45.2935 56.1396 43.2401 57.8196C41.6535 59.1262 39.6935 60.6196 37.3601 62.2996C35.1201 63.8862 32.8801 65.6129 30.6401 67.4796C28.4935 69.2529 26.5335 71.1662 24.7601 73.2196C23.0801 75.2729 22.0068 77.3729 21.5401 79.5196H61.7201V97.9996H0.120117V84.5596C0.120117 80.5462 0.680118 76.8596 1.80012 73.4996C2.92012 70.0462 4.36678 66.8729 6.14012 63.9796C8.00678 61.0862 10.1535 58.4262 12.5801 55.9996C15.0068 53.5729 17.4801 51.3796 20.0001 49.4196C22.5201 47.4596 24.9935 45.6396 27.4201 43.9596C29.9401 42.2796 32.1801 40.5996 34.1401 38.9196C36.1001 37.2396 37.6401 35.5596 38.7601 33.8796C39.9735 32.1996 40.5801 30.4262 40.5801 28.5596C40.5801 26.3196 39.6935 24.4062 37.9201 22.8196C36.1468 21.2329 33.3001 20.4396 29.3801 20.4396C26.4868 20.4396 23.4535 20.9529 20.2801 21.9796C17.2001 23.0062 14.3068 24.7329 11.6001 27.1596L0.820117 10.4996C4.64678 7.13957 9.22012 4.66624 14.5401 3.07957C19.8601 1.39957 25.3668 0.55957 31.0601 0.55957C34.7935 0.55957 38.5268 1.02624 42.2601 1.95957C45.9935 2.79957 49.3068 4.33957 52.2001 6.57957C55.1868 8.72623 57.6135 11.6196 59.4801 15.2596C61.3468 18.8062 62.2801 23.2396 62.2801 28.5596Z" fill="white" fill-opacity="0.2"></path> </svg> 