<?xml version="1.0" encoding="UTF-8"?> <svg xmlns="http://www.w3.org/2000/svg" width="126" height="73" viewBox="0 0 126 73" fill="none"> <path d="M4.20485 71.5476C9.37367 56.0181 18.9061 38.8705 36.8666 35.7109C37.5261 35.5192 38.1933 35.3812 38.8452 35.2508C34.3589 44.2771 33.2776 54.2543 41.3452 61.1486C50.7319 69.1626 70.2722 65.8343 69.72 50.3125C69.2753 37.9196 61.9745 30.8796 52.4958 28.2645C54.2732 26.3615 56.3446 24.7562 58.6309 23.5098C63.412 20.8354 68.7202 19.2388 74.1833 18.8318C74.1833 18.8854 74.122 18.9238 74.099 18.9698C67.5344 31.171 65.2644 49.4152 81.9059 53.9705C97.7805 58.3188 108.747 36.6926 100.357 24.4914C97.133 19.8447 92.7171 16.152 87.5732 13.801C97.4584 6.02473 110.994 4.59832 124.89 7.10604C124.984 7.14884 125.085 7.17278 125.188 7.17648C125.291 7.18018 125.393 7.16358 125.49 7.12761C125.586 7.09165 125.675 7.03704 125.75 6.96689C125.825 6.89674 125.886 6.81242 125.929 6.71876C125.972 6.6251 125.996 6.52393 125.999 6.42102C126.003 6.31811 125.987 6.21548 125.951 6.11899C125.915 6.0225 125.86 5.93403 125.79 5.85865C125.72 5.78326 125.635 5.72243 125.542 5.67963C111.362 -3.99849 91.515 -0.769892 79.7586 11.2856C75.4586 10.439 71.0329 10.458 66.7403 11.3415C62.4477 12.2251 58.3742 13.9554 54.7581 16.4314C50.666 19.4184 47.0467 23.0041 44.0216 27.0681C39.4582 27.03 34.9186 27.7292 30.5781 29.1387C13.5379 34.5529 -0.20475 52.9966 0.00230946 70.8344C0.00345886 71.3444 0.184803 71.8375 0.51431 72.2268C0.843818 72.616 1.30029 72.8763 1.80309 72.9617C2.30589 73.047 2.82267 72.9519 3.26214 72.6931C3.70162 72.4344 4.03552 72.0287 4.20485 71.5476ZM81.7909 19.706C83.514 20.2219 85.1484 20.9977 86.6376 22.0067C89.1597 23.4046 91.2923 25.4107 92.8417 27.8427C95.0657 33.7861 96.3771 45.067 87.9873 46.8461C86.3457 47.1809 84.6515 47.1611 83.0181 46.7881C81.3847 46.4152 79.8499 45.6976 78.5162 44.6835C77.1897 43.3768 76.2866 41.7015 75.9242 39.8751H75.5561C74.8995 36.1704 75.2464 32.3574 76.5607 28.832C77.8827 25.5846 79.6368 22.5304 81.7755 19.752L81.7909 19.706ZM47.5493 35.2738C50.0986 35.7813 52.552 36.6871 54.8194 37.9579C54.8961 38.1727 54.9575 38.3797 55.0265 38.6021C59.3057 41.0561 62.588 45.9872 62.45 50.834C62.3196 55.0749 58.4698 57.2835 54.597 57.1915C52.5715 57.1377 50.5865 56.6125 48.7994 55.6577C47.6344 55.4537 46.5605 54.896 45.7236 54.0605C44.8867 53.2249 44.3272 52.1519 44.1213 50.9873C43.631 49.9866 43.3844 48.8841 43.4017 47.7698C43.4191 46.6555 43.6998 45.5612 44.221 44.5762C44.3974 43.5102 44.6352 42.3905 44.9879 41.1789C45.6895 39.1479 46.5458 37.1738 47.5493 35.2738Z" fill="#FCC600"></path> </svg> 