<?xml version="1.0" encoding="UTF-8"?> <svg xmlns="http://www.w3.org/2000/svg" width="65" height="99" viewBox="0 0 65 99" fill="none"> <path d="M34.4799 0.419922C38.4932 0.419922 42.3199 0.97992 45.9599 2.09992C49.5999 3.12659 52.8199 4.75992 55.6199 6.99992C58.4199 9.23992 60.6132 12.0866 62.1999 15.5399C63.8799 18.9933 64.7199 23.0999 64.7199 27.8599C64.7199 32.5266 63.5999 36.5866 61.3599 40.0399C59.1199 43.4933 56.2732 46.1999 52.8199 48.1599C56.7399 50.0266 59.6799 52.7799 61.6399 56.4199C63.6932 59.9666 64.7199 64.0266 64.7199 68.5999C64.7199 74.0133 63.7399 78.6333 61.7799 82.4599C59.8199 86.2866 57.2532 89.4599 54.0799 91.9799C50.9999 94.4066 47.4532 96.1799 43.4399 97.2999C39.4265 98.4199 35.3666 98.9799 31.2599 98.9799C25.6599 98.9799 20.1532 98.1866 14.7399 96.5999C9.32655 94.9199 4.70655 92.3999 0.879883 89.0399L11.6599 72.5199C14.3665 74.8533 17.3999 76.5799 20.7599 77.6999C24.1199 78.7266 27.2466 79.2399 30.1399 79.2399C33.8732 79.2399 37.0465 78.3533 39.6599 76.5799C42.3665 74.7133 43.7199 72.1466 43.7199 68.8799C43.7199 65.8933 42.7399 63.3733 40.7799 61.3199C38.9132 59.1733 36.2999 58.0999 32.9399 58.0999H21.0399V40.5999H32.3799C35.3665 40.5999 37.9332 39.6199 40.0799 37.6599C42.2266 35.6066 43.2999 33.0866 43.2999 30.0999C43.2999 28.3266 42.9266 26.8333 42.1799 25.6199C41.5265 24.4066 40.6399 23.4266 39.5199 22.6799C38.3999 21.8399 37.1399 21.2799 35.7399 20.9999C34.4332 20.6266 33.1732 20.4399 31.9599 20.4399C29.0665 20.4399 26.0799 20.9533 22.9999 21.9799C20.0132 23.0066 17.1665 24.7333 14.4599 27.1599L3.67988 10.7799C7.50655 7.41992 12.1732 4.85325 17.6799 3.07992C23.1866 1.30659 28.7865 0.419922 34.4799 0.419922Z" fill="white" fill-opacity="0.2"></path> </svg> 